# xmcd
#
# Track frame offsets:
#	150
#	10096
#	21198
#	31012
#	42045
#	53563
#	65850
#	77569
#	87606
#	97256
#	111258
#	121286
#	131916
#
# Disc length: 1888 seconds
#
# Revision: 0
# Processed by: cddbd v1.5.2PL0 Copyright (c) Steve Scherf et al.
# Submitted via: EasyCDDAExtractor 15.3.0.1
#
DISCID=aa075e0d
DTITLE=George Jones - Early Years Cd 3
DYEAR=2008
DGENRE=Country
TTITLE0=George Jones - All I Want To Do
TTITLE1=George Jones - Nothing Can Stop Me
TTITLE2=George Jones and Jeanette Hicks - I'm With The Wrong One
TTITLE3=George Jones - Tall Tall Trees
TTITLE4=George Jones - Hearts In My Dreams
TTITLE5=George Jones - Take The Devil Out Of Me
TTITLE6=George Jones - Cup Of Loneliness
TTITLE7=George Jones - New Baby For Christmas
TTITLE8=George Jones - Maybe Next Christmas
TTITLE9=George Jones - Color Of The Blues (Live)
TTITLE10=George Jones - Rock It
TTITLE11=George Jones - How Come It
TTITLE12=George Jones - Heartbreak Hotel
EXTD=
EXTT0=
EXTT1=
EXTT2=
EXTT3=
EXTT4=
EXTT5=
EXTT6=
EXTT7=
EXTT8=
EXTT9=
EXTT10=
EXTT11=
EXTT12=
PLAYORDER=
